<?xml version="1.0" standalone="no"?><!-- Generator: Gravit.io --><svg xmlns="http://www.w3.org/2000/svg" xmlns:xlink="http://www.w3.org/1999/xlink" style="isolation:isolate" viewBox="0 0 100 50" width="100" height="50"><defs><clipPath id="_clipPath_E5tlPG15C0DsBn5WNTIaq7yub183mACc"><rect width="100" height="50"/></clipPath></defs><g clip-path="url(#_clipPath_E5tlPG15C0DsBn5WNTIaq7yub183mACc)"><path d=" M 18 32.43 L 18 32.43 L 18 32.43 Q 18 31.89 18.03 31.43 L 18.03 31.43 L 18.03 31.43 Q 18.06 30.97 18.09 30.53 L 18.09 30.53 L 18.09 30.53 Q 18.12 30.09 18.15 29.64 L 18.15 29.64 L 18.15 29.64 Q 18.18 29.19 18.18 28.69 L 18.18 28.69 L 18.18 28.69 Q 18.18 28.41 18.06 28.13 L 18.06 28.13 L 18.06 28.13 Q 17.94 27.85 17.62 27.64 L 17.62 27.64 L 17.62 27.64 Q 17.3 27.43 16.74 27.29 L 16.74 27.29 L 16.74 27.29 Q 16.18 27.15 15.32 27.15 L 15.32 27.15 L 15.32 25.95 L 15.32 25.95 Q 16.18 25.95 16.74 25.81 L 16.74 25.81 L 16.74 25.81 Q 17.3 25.67 17.62 25.46 L 17.62 25.46 L 17.62 25.46 Q 17.94 25.25 18.06 24.97 L 18.06 24.97 L 18.06 24.97 Q 18.18 24.69 18.18 24.41 L 18.18 24.41 L 18.18 24.41 Q 18.18 23.45 18.09 22.58 L 18.09 22.58 L 18.09 22.58 Q 18 21.71 18 20.67 L 18 20.67 L 18 20.67 Q 18 19.89 18.22 19.36 L 18.22 19.36 L 18.22 19.36 Q 18.44 18.83 18.9 18.52 L 18.9 18.52 L 18.9 18.52 Q 19.36 18.21 20.06 18.08 L 20.06 18.08 L 20.06 18.08 Q 20.76 17.95 21.7 17.95 L 21.7 17.95 L 23 17.95 L 23 19.07 L 22.02 19.07 L 22.02 19.07 Q 21.3 19.07 20.84 19.16 L 20.84 19.16 L 20.84 19.16 Q 20.38 19.25 20.12 19.45 L 20.12 19.45 L 20.12 19.45 Q 19.86 19.65 19.76 19.97 L 19.76 19.97 L 19.76 19.97 Q 19.66 20.29 19.66 20.77 L 19.66 20.77 L 19.66 20.77 Q 19.66 21.61 19.72 22.49 L 19.72 22.49 L 19.72 22.49 Q 19.78 23.37 19.78 24.29 L 19.78 24.29 L 19.78 24.29 Q 19.78 25.31 19.37 25.82 L 19.37 25.82 L 19.37 25.82 Q 18.96 26.33 17.9 26.51 L 17.9 26.51 L 17.9 26.59 L 17.9 26.59 Q 18.96 26.77 19.37 27.28 L 19.37 27.28 L 19.37 27.28 Q 19.78 27.79 19.78 28.81 L 19.78 28.81 L 19.78 28.81 Q 19.78 29.81 19.72 30.62 L 19.72 30.62 L 19.72 30.62 Q 19.66 31.43 19.66 32.33 L 19.66 32.33 L 19.66 32.33 Q 19.66 32.81 19.76 33.13 L 19.76 33.13 L 19.76 33.13 Q 19.86 33.45 20.12 33.65 L 20.12 33.65 L 20.12 33.65 Q 20.38 33.85 20.84 33.94 L 20.84 33.94 L 20.84 33.94 Q 21.3 34.03 22.02 34.03 L 22.02 34.03 L 23 34.03 L 23 35.15 L 21.7 35.15 L 21.7 35.15 Q 20.76 35.15 20.06 35.02 L 20.06 35.02 L 20.06 35.02 Q 19.36 34.89 18.9 34.58 L 18.9 34.58 L 18.9 34.58 Q 18.44 34.27 18.22 33.74 L 18.22 33.74 L 18.22 33.74 Q 18 33.21 18 32.43 Z  M 35.2 22.33 L 35.2 32.11 L 33.58 32.11 L 33.42 30.49 L 33.34 30.49 L 33.34 30.49 Q 32.62 31.33 31.77 31.84 L 31.77 31.84 L 31.77 31.84 Q 30.92 32.35 29.8 32.35 L 29.8 32.35 L 29.8 32.35 Q 28.06 32.35 27.26 31.34 L 27.26 31.34 L 27.26 31.34 Q 26.46 30.33 26.46 28.39 L 26.46 28.39 L 26.46 22.33 L 28.44 22.33 L 28.44 28.13 L 28.44 28.13 Q 28.44 29.43 28.9 30.04 L 28.9 30.04 L 28.9 30.04 Q 29.36 30.65 30.48 30.65 L 30.48 30.65 L 30.48 30.65 Q 31.24 30.65 31.87 30.28 L 31.87 30.28 L 31.87 30.28 Q 32.5 29.91 33.22 29.03 L 33.22 29.03 L 33.22 22.33 L 35.2 22.33 L 35.2 22.33 Z  M 39.76 32.11 L 39.76 22.33 L 41.4 22.33 L 41.56 24.61 L 41.62 24.61 L 41.62 24.61 Q 42.38 23.41 43.47 22.75 L 43.47 22.75 L 43.47 22.75 Q 44.56 22.09 45.88 22.09 L 45.88 22.09 L 45.88 22.09 Q 46.46 22.09 46.9 22.18 L 46.9 22.18 L 46.9 22.18 Q 47.34 22.27 47.8 22.49 L 47.8 22.49 L 47.36 24.19 L 47.36 24.19 Q 46.86 24.03 46.5 23.95 L 46.5 23.95 L 46.5 23.95 Q 46.14 23.87 45.58 23.87 L 45.58 23.87 L 45.58 23.87 Q 44.52 23.87 43.54 24.47 L 43.54 24.47 L 43.54 24.47 Q 42.56 25.07 41.74 26.55 L 41.74 26.55 L 41.74 32.11 L 39.76 32.11 L 39.76 32.11 Z  M 50.52 19.51 L 50.52 17.93 L 55.7 17.93 L 55.7 28.81 L 55.7 28.81 Q 55.7 29.83 56.21 30.28 L 56.21 30.28 L 56.21 30.28 Q 56.72 30.73 57.54 30.73 L 57.54 30.73 L 57.54 30.73 Q 57.94 30.73 58.36 30.63 L 58.36 30.63 L 58.36 30.63 Q 58.78 30.53 59.3 30.31 L 59.3 30.31 L 59.78 31.79 L 59.78 31.79 Q 59.44 31.91 59.13 32.01 L 59.13 32.01 L 59.13 32.01 Q 58.82 32.11 58.5 32.18 L 58.5 32.18 L 58.5 32.18 Q 58.18 32.25 57.83 32.3 L 57.83 32.3 L 57.83 32.3 Q 57.48 32.35 57.06 32.35 L 57.06 32.35 L 57.06 32.35 Q 55.42 32.35 54.57 31.41 L 54.57 31.41 L 54.57 31.41 Q 53.72 30.47 53.72 28.69 L 53.72 28.69 L 53.72 19.51 L 50.52 19.51 L 50.52 19.51 Z  M 62.74 34.47 L 62.74 34.47 L 62.74 34.47 Q 62.92 34.53 63.14 34.57 L 63.14 34.57 L 63.14 34.57 Q 63.36 34.61 63.58 34.61 L 63.58 34.61 L 63.58 34.61 Q 64.56 34.61 65.16 34.08 L 65.16 34.08 L 65.16 34.08 Q 65.76 33.55 66.1 32.73 L 66.1 32.73 L 66.36 32.05 L 61.9 22.33 L 63.88 22.33 L 66.08 27.43 L 66.08 27.43 Q 66.36 28.09 66.64 28.83 L 66.64 28.83 L 66.64 28.83 Q 66.92 29.57 67.22 30.29 L 67.22 30.29 L 67.3 30.29 L 67.3 30.29 Q 67.54 29.59 67.8 28.85 L 67.8 28.85 L 67.8 28.85 Q 68.06 28.11 68.3 27.43 L 68.3 27.43 L 70.24 22.33 L 72.12 22.33 L 67.94 32.73 L 67.94 32.73 Q 67.64 33.51 67.26 34.15 L 67.26 34.15 L 67.26 34.15 Q 66.88 34.79 66.37 35.25 L 66.37 35.25 L 66.37 35.25 Q 65.86 35.71 65.2 35.96 L 65.2 35.96 L 65.2 35.96 Q 64.54 36.21 63.68 36.21 L 63.68 36.21 L 63.68 36.21 Q 63.32 36.21 62.97 36.16 L 62.97 36.16 L 62.97 36.16 Q 62.62 36.11 62.34 36.01 L 62.34 36.01 L 62.74 34.47 L 62.74 34.47 Z  M 74.6 32.11 L 74.6 19.01 L 77.9 19.01 L 77.9 19.01 Q 80.84 19.01 82.43 20.65 L 82.43 20.65 L 82.43 20.65 Q 84.02 22.29 84.02 25.51 L 84.02 25.51 L 84.02 25.51 Q 84.02 28.71 82.44 30.41 L 82.44 30.41 L 82.44 30.41 Q 80.86 32.11 77.98 32.11 L 77.98 32.11 L 74.6 32.11 L 74.6 32.11 Z  M 76.6 30.49 L 77.76 30.49 L 77.76 30.49 Q 79.82 30.49 80.89 29.23 L 80.89 29.23 L 80.89 29.23 Q 81.96 27.97 81.96 25.51 L 81.96 25.51 L 81.96 25.51 Q 81.96 23.05 80.89 21.84 L 80.89 21.84 L 80.89 21.84 Q 79.82 20.63 77.76 20.63 L 77.76 20.63 L 76.6 20.63 L 76.6 30.49 L 76.6 30.49 Z " fill-rule="evenodd" fill="rgb(255,255,255)"/></g></svg>